<svg width="27" height="24" viewBox="0 0 27 24" fill="none" xmlns="http://www.w3.org/2000/svg">
<path d="M13.0833 5.83333C13.0833 4.55145 12.5741 3.32208 11.6677 2.41565C10.7613 1.50922 9.53188 1 8.25 1H1V19.125H9.45833C10.4197 19.125 11.3418 19.5069 12.0216 20.1867C12.7014 20.8666 13.0833 21.7886 13.0833 22.75M13.0833 5.83333V22.75M13.0833 5.83333C13.0833 4.55145 13.5926 3.32208 14.499 2.41565C15.4054 1.50922 16.6348 1 17.9167 1H25.1667V19.125H16.7083C15.7469 19.125 14.8249 19.5069 14.1451 20.1867C13.4653 20.8666 13.0833 21.7886 13.0833 22.75" stroke="#0A2533" stroke-width="2" stroke-linecap="round" stroke-linejoin="round"/>
</svg>
