<svg width="29" height="24" viewBox="0 0 29 24" fill="none" xmlns="http://www.w3.org/2000/svg">
<path d="M20.3333 22.75V20.3333C20.3333 19.0515 19.8241 17.8221 18.9177 16.9157C18.0113 16.0092 16.7819 15.5 15.5 15.5H5.83333C4.55145 15.5 3.32208 16.0092 2.41565 16.9157C1.50922 17.8221 1 19.0515 1 20.3333V22.75M27.5833 22.75V20.3333C27.5825 19.2624 27.2261 18.2221 26.57 17.3757C25.9139 16.5293 24.9952 15.9248 23.9583 15.6571M19.125 1.15708C20.1647 1.42328 21.0862 2.02793 21.7442 2.87571C22.4023 3.72349 22.7595 4.76617 22.7595 5.83938C22.7595 6.91258 22.4023 7.95526 21.7442 8.80304C21.0862 9.65082 20.1647 10.2555 19.125 10.5217M15.5 5.83333C15.5 8.50271 13.336 10.6667 10.6667 10.6667C7.99729 10.6667 5.83333 8.50271 5.83333 5.83333C5.83333 3.16396 7.99729 1 10.6667 1C13.336 1 15.5 3.16396 15.5 5.83333Z" stroke="#0A2533" stroke-width="2" stroke-linecap="round" stroke-linejoin="round"/>
</svg>
