<svg width="909" height="1000" viewBox="0 0 909 1000" fill="none" xmlns="http://www.w3.org/2000/svg">
    <path d="M740.5 1106C939 855 719.426 819.881 638.328 866.615C557.23 913.35 259.195 933.259 302.556 782.597C361.618 577.384 388.167 496.857 240.294 546.89C92.4212 596.922 128.61 432.004 -37 454.5" stroke="#5E7222"/>
    <path d="M63.7078 122.162C99.7685 173.113 56.7304 217.063 24.9722 218.675C-89.234 223.225 -61.9975 179.299 -51.7782 107.627C-41.5589 35.9553 27.647 71.211 63.7078 122.162Z" stroke="#5E7222"/>
    <path d="M380.963 -316.969C394.657 -304.995 416.034 -262.015 391.985 -185.888C361.923 -90.7283 301.97 105.299 435.288 118.497C568.607 131.696 670.248 88.697 651.634 39.2554C633.02 -10.1862 525.456 25.8458 559.496 161.96C593.537 298.074 772.856 368.475 907.21 271.66" stroke="#5E7222"/>
    <path d="M117.876 855.259C110.95 862.186 99.3155 861.781 99.3155 861.781C99.3155 861.781 98.9106 850.146 105.837 843.22C112.763 836.294 124.398 836.698 124.398 836.698C124.398 836.698 124.803 848.333 117.876 855.259Z" fill="#FFF1CE"/>
    <circle cx="231.4" cy="590.816" r="8.89462" fill="#FFF1CE"/>
    <circle cx="582.737" cy="613.053" r="8.89462" fill="#FFF1CE"/>
    <circle cx="582.737" cy="613.053" r="8.89462" fill="#FFF1CE"/>
    <circle cx="776.195" cy="537.449" r="8.89462" fill="#FFF1CE"/>
    <circle cx="614.98" cy="185" r="7.78279" fill="#FFF1CE"/>
    <circle cx="221.393" cy="409.589" r="7.78279" fill="#FFF1CE"/>
    <circle cx="447.094" cy="277.281" r="6.67096" fill="#FFF1CE"/>
    <path d="M679.071 585.106C681.102 594.246 687.601 602.167 695.929 606.839C703.85 611.307 712.381 612.119 721.317 611.713C721.724 611.713 722.13 611.713 722.333 611.713C722.333 611.307 722.333 610.901 722.333 610.495C721.52 598.714 717.458 587.137 710.959 577.388C704.459 568.045 695.726 560.327 687.195 553.015C680.696 562.358 676.633 574.747 679.071 585.106Z" fill="#AEDC90"/>
    <path d="M679.071 585.106C681.102 594.246 687.601 602.167 695.929 606.839C703.85 611.307 712.381 612.119 721.318 611.713C721.724 611.713 722.13 611.713 722.333 611.713C683.336 589.981 686.992 553.015 686.992 553.015C680.696 562.358 676.634 574.747 679.071 585.106Z" fill="#7CA661"/>
    <path d="M688.82 571.7C690.648 580.84 696.132 589.777 702.022 596.683C707.303 602.776 713.802 608.26 721.114 611.916C721.52 611.916 721.927 611.916 722.13 611.916C722.13 611.509 722.13 611.103 722.13 610.697C714.818 606.635 708.318 601.963 702.834 595.464C699.788 591.808 697.147 587.949 694.913 583.684C692.882 579.824 691.46 575.559 690.038 571.497C689.835 570.481 688.617 570.888 688.82 571.7Z" fill="#39700B"/>
    <path d="M310.997 358.997C322.569 354.213 333.215 345.881 340.313 337.704C354.663 321.04 356.977 296.507 352.194 275.059C349.725 263.796 345.405 252.686 338.462 243.429C320.872 219.358 290.321 206.089 260.696 204.083C242.335 202.849 222.276 207.94 206.847 217.815C181.696 234.171 170.433 269.042 183.548 298.204C195.583 324.897 215.179 319.96 236.78 331.84C254.524 341.561 265.171 361.311 287.389 363.317C295.258 363.934 303.436 362.237 310.997 358.997Z" fill="#F4F4F4"/>
    <path d="M183.702 298.05C195.737 324.743 215.333 319.805 236.934 331.686C254.678 341.407 265.325 361.157 287.544 363.163C295.258 363.78 303.282 362.083 310.997 358.842C315.626 356.991 319.946 354.522 324.112 351.745C272.423 349.122 212.247 309.313 201.755 276.757C194.349 253.612 202.989 230.313 211.63 214.729C209.932 215.655 208.39 216.581 206.847 217.507C181.851 234.017 170.587 268.888 183.702 298.05Z" fill="#E3E3E3"/>
    <path d="M300.196 325.977C319.029 325.977 334.296 310.711 334.296 291.878C334.296 273.045 319.029 257.778 300.196 257.778C281.364 257.778 266.097 273.045 266.097 291.878C266.097 310.711 281.364 325.977 300.196 325.977Z" fill="#EBB64A"/>
    <path d="M308.991 319.188C290.167 319.188 274.892 303.913 274.892 285.089C274.892 276.14 278.44 267.962 284.149 261.79C273.503 267.499 266.097 278.763 266.097 291.878C266.097 310.702 281.372 325.977 300.196 325.977C310.071 325.977 318.866 321.811 325.038 315.177C320.255 317.8 314.7 319.188 308.991 319.188Z" fill="#E3A63B"/>
    <path d="M325.655 294.038C321.026 297.587 321.643 286.941 315.626 279.226C309.608 271.511 299.116 269.505 303.745 265.956C308.374 262.407 317.015 265.648 323.032 273.362C329.204 281.232 330.284 290.335 325.655 294.038Z" fill="white"/>
    <path d="M602.939 216.777C595.65 214.153 587.486 214.445 580.342 217.798C565.18 225.087 539.522 239.082 536.315 253.224C531.796 273.634 583.841 299.438 634.866 342.299C685.891 385.159 691.431 402.362 700.615 387.638C709.8 372.913 746.246 334.28 717.38 288.941C694.638 253.078 629.472 226.399 602.939 216.777Z" fill="#ECB579"/>
    <path d="M700.615 387.638C705.717 379.474 719.421 363.729 725.399 343.611C717.38 351.337 707.321 357.752 695.513 354.399C667.668 346.526 613.873 279.902 573.636 254.827C560.515 246.517 549.873 243.748 541.709 243.748C539.085 246.955 537.19 250.162 536.461 253.369C531.941 273.779 583.987 299.583 635.012 342.444C685.745 385.159 691.431 402.362 700.615 387.638Z" fill="#DFA164"/>
    <path d="M599.732 306.873C605.271 305.269 611.249 305.269 617.08 305.123C618.538 305.123 619.996 305.123 621.454 305.123C645.071 304.54 664.315 297.105 675.832 283.984C678.31 281.069 680.497 278.007 682.684 274.946C683.558 273.634 684.433 272.322 685.453 271.01C687.494 268.094 689.827 265.324 692.16 262.554C691.139 261.825 690.119 261.096 689.098 260.367C686.766 263.137 684.579 265.907 682.392 268.823C681.517 270.135 680.497 271.447 679.622 272.759C677.581 275.675 675.394 278.736 673.062 281.506C662.274 293.898 643.905 300.896 621.454 301.479C619.996 301.479 618.684 301.479 617.226 301.479C611.103 301.479 604.98 301.624 598.857 303.374C595.504 304.394 592.442 305.706 589.527 307.456C590.693 308.185 591.713 309.06 592.88 309.788C594.921 308.622 597.253 307.602 599.732 306.873Z" fill="#F2D0A4"/>
    <path d="M572.47 272.904C575.094 273.633 577.718 274.216 580.196 274.945C592.88 278.153 607.75 280.777 621.745 276.112C632.242 272.613 640.989 265.469 648.861 258.034C653.818 253.515 658.483 248.704 663.148 244.039C661.982 243.456 660.962 242.727 659.795 242.144C655.422 246.663 650.902 251.036 646.383 255.264C638.802 262.262 630.492 269.26 620.579 272.467C607.604 276.695 593.317 274.216 581.071 271.155C578.447 270.572 575.969 269.843 573.344 269.114C562.702 266.344 551.622 263.428 540.397 263.428C539.668 263.428 538.939 263.428 538.21 263.428C538.939 264.595 539.668 265.907 540.543 267.073C551.331 267.364 562.119 270.134 572.47 272.904Z" fill="#F2D0A4"/>
    <path d="M579.905 293.023C589.964 289.815 600.607 289.961 608.916 290.399C609.645 290.399 610.374 290.544 611.249 290.544C616.789 290.836 622.475 291.127 628.16 289.961C635.304 288.358 641.427 284.276 647.112 280.339C656.005 274.071 665.19 267.073 672.042 257.597C673.499 255.556 674.666 253.661 675.832 251.474C674.811 250.745 673.791 250.162 672.625 249.579C671.604 251.62 670.438 253.515 668.98 255.41C662.566 264.449 653.673 271.301 644.925 277.278C639.531 281.068 633.7 284.859 627.14 286.317C622.037 287.483 616.497 287.191 611.249 286.9C610.52 286.9 609.791 286.754 608.916 286.754C600.315 286.317 589.09 286.171 578.593 289.524C575.386 290.544 572.47 291.856 569.7 293.314C570.721 294.189 571.887 294.918 573.053 295.793C575.24 294.626 577.573 293.752 579.905 293.023Z" fill="#F2D0A4"/>
    <path d="M614.164 244.622C607.313 247.684 598.711 247.684 587.923 244.622C577.281 241.561 567.222 236.604 558.329 230.044C557.162 230.773 556.142 231.502 554.976 232.231C564.452 239.374 575.386 244.914 586.903 248.267C598.565 251.62 608.041 251.62 615.768 248.121C624.078 244.331 629.472 237.187 634.137 229.461C632.971 228.878 631.805 228.44 630.638 228.003C626.119 235.001 621.454 241.415 614.164 244.622Z" fill="#F2D0A4"/>
    <path d="M566.638 224.941C575.386 229.752 585.153 233.98 595.504 235C600.169 235.438 604.105 235.146 607.458 233.834C612.415 232.085 616.643 228.294 619.704 223.192C618.538 222.754 617.372 222.171 616.205 221.734C613.581 225.816 610.228 228.877 606.292 230.189C603.522 231.21 600.169 231.502 595.941 231.064C587.048 230.189 578.447 226.691 570.575 222.609C569.263 223.483 567.95 224.212 566.638 224.941Z" fill="#F2D0A4"/>
    <path d="M626.119 255.119C611.249 265.032 591.13 266.344 575.094 258.472C571.303 256.576 567.513 254.244 564.014 251.911C557.6 247.829 551.039 243.456 543.313 241.852C542.292 242.873 541.272 244.039 540.397 245.205C541.126 245.351 541.709 245.351 542.438 245.497C549.436 246.955 555.559 250.891 561.973 254.973C565.618 257.305 569.554 259.784 573.49 261.825C590.693 270.28 612.269 268.822 628.16 258.18C636.47 252.64 643.176 244.768 647.403 235.729C646.237 235.146 645.217 234.709 644.05 234.125C640.114 242.581 633.991 249.87 626.119 255.119Z" fill="#F2D0A4"/>
    <path d="M685.162 378.745C689.681 364.749 693.909 351.629 703.531 341.424C706.155 338.654 709.217 336.175 712.132 333.697C713.299 332.677 714.465 331.656 715.777 330.636C720.15 326.845 724.232 322.763 728.169 318.535C728.023 316.932 727.731 315.328 727.44 313.579C723.212 318.681 718.401 323.492 713.299 327.866C712.132 328.886 710.966 329.907 709.8 330.781C706.738 333.26 703.531 335.884 700.761 338.8C690.556 349.588 686.037 363.729 681.517 377.578C680.934 379.474 680.351 381.369 679.622 383.264C680.643 384.285 681.663 385.159 682.684 386.034C683.558 383.556 684.287 381.223 685.162 378.745Z" fill="#F2D0A4"/>
    <path d="M703.822 382.827C704.697 381.515 705.718 380.203 706.738 378.745C706.155 375.246 705.863 371.601 706.446 368.103C707.467 361.105 711.112 354.545 714.902 348.567C718.838 342.299 723.212 336.176 727.877 330.49C728.023 328.449 728.168 326.408 728.168 324.221C722.191 331.365 716.651 338.8 711.695 346.526C707.613 352.941 703.677 359.793 702.656 367.519C702.073 372.768 702.656 377.87 703.822 382.827Z" fill="#F2D0A4"/>
    <path d="M672.77 357.898C678.164 350.463 684.725 343.902 691.139 337.488C695.804 332.677 700.761 327.866 705.134 322.618C712.132 314.308 717.672 305.561 721.608 296.376C720.879 294.918 720.15 293.606 719.276 292.148C715.485 301.77 709.654 311.392 702.219 320.139C697.845 325.242 693.034 330.198 688.369 334.864C681.955 341.424 675.248 348.13 669.709 355.711C666.939 359.501 664.606 363.438 662.857 367.228C663.877 368.103 664.752 369.123 665.772 369.998C667.522 365.916 669.854 361.834 672.77 357.898Z" fill="#F2D0A4"/>
    <path d="M649.59 320.43C651.34 319.556 653.235 318.681 654.984 317.661C665.044 312.704 675.394 307.601 683.996 300.166C692.305 293.023 699.157 283.693 703.968 272.904C703.094 272.03 702.073 271.155 701.053 270.28C696.387 281.068 689.827 290.253 681.517 297.396C673.208 304.54 663.003 309.497 653.235 314.453C651.486 315.328 649.59 316.203 647.841 317.223C639.24 321.597 630.492 326.553 623.203 333.114C624.224 333.843 625.098 334.717 626.119 335.446C633.117 329.323 641.426 324.658 649.59 320.43Z" fill="#F2D0A4"/>
    <path d="M644.779 350.608C651.194 344.631 658.629 339.528 665.773 334.717C673.208 329.615 680.934 324.367 687.64 318.098C698.283 308.185 706.155 295.793 713.736 283.838C713.007 282.818 712.132 281.797 711.258 280.777C703.677 292.877 695.659 305.56 685.162 315.474C678.602 321.597 671.021 326.845 663.732 331.802C656.442 336.758 648.861 341.861 642.301 348.13C642.155 348.276 642.01 348.421 641.864 348.567C642.738 349.15 643.759 350.025 644.779 350.608C644.634 350.754 644.634 350.754 644.779 350.608Z" fill="#F2D0A4"/>
    <path d="M677.277 805.074C674.571 805.689 671.865 808.558 670.2 809.993C667.077 812.657 663.747 814.707 660 816.551C661.249 818.396 664.163 819.42 666.245 819.83C668.535 820.24 670.616 819.83 672.906 819.42C673.947 819.215 674.988 818.805 676.028 818.396C679.151 816.551 684.563 808.968 680.608 805.894C679.567 805.074 678.318 804.869 677.277 805.074Z" fill="#7CA661"/>
    <path d="M413 183.47C410.843 181.5 409.863 177.955 408.882 175C407.314 176.576 405.353 177.561 403 177.758C403.98 182.091 406.529 186.03 410.451 188C410.647 186.621 411.824 184.455 413 183.47Z" fill="#AEDC90"/>
    <path d="M425 530.299L419.742 525C419.742 525 418.933 537.757 407 542.467L411.854 546C411.854 546 421.966 542.075 425 530.299Z" fill="#AEDC90"/>
    <path d="M115.287 677C111.904 679.011 108.721 680.822 105.338 682.833C103.348 684.04 101.358 685.046 99.9651 686.856C98.3732 688.666 96.7813 691.884 99.3681 693.493C101.955 695.103 106.731 692.488 108.92 691.08C111.108 689.672 113.297 688.063 114.69 685.649C117.476 681.224 114.889 677.201 115.287 677Z" fill="#7CA661"/>
    <path d="M131.671 361.459C132.687 366.536 136.343 370.599 140.811 373.239C145.077 375.676 149.748 376.082 154.623 375.879C154.826 375.879 155.029 375.879 155.232 375.879C155.232 375.676 155.232 375.473 155.232 375.27C154.826 368.771 152.592 362.677 148.936 357.193C145.483 352.116 140.811 348.053 136.14 343.991C132.687 349.069 130.453 355.772 131.671 361.459Z" fill="#AEDC90"/>
    <path d="M131.671 361.459C132.687 366.536 136.343 370.599 140.811 373.239C145.077 375.676 149.748 376.082 154.623 375.879C154.826 375.879 155.029 375.879 155.232 375.879C134.109 364.099 136.14 343.991 136.14 343.991C132.687 349.069 130.453 355.772 131.671 361.459Z" fill="#7CA661"/>
    <path d="M136.952 354.147C137.967 359.021 140.811 363.896 144.061 367.552C146.904 370.802 150.357 373.848 154.419 375.879C154.622 375.879 154.825 375.879 155.029 375.879C155.029 375.676 155.029 375.473 155.029 375.27C151.169 373.036 147.514 370.599 144.67 366.943C143.045 364.911 141.623 362.88 140.405 360.646C139.186 358.412 138.577 356.178 137.764 353.944C137.561 353.537 136.952 353.74 136.952 354.147Z" fill="#39700B"/>
    <path d="M135.466 95.3359C130.388 96.3514 126.326 100.007 123.686 104.476C121.249 108.741 120.842 113.413 121.045 118.287C121.045 118.49 121.045 118.693 121.045 118.896C121.249 118.896 121.452 118.896 121.655 118.896C128.154 118.49 134.248 116.256 139.731 112.6C144.809 109.147 148.871 104.476 152.934 99.8042C147.856 96.3514 141.153 94.1172 135.466 95.3359Z" fill="#AEDC90"/>
    <path d="M135.466 95.3359C130.388 96.3514 126.326 100.007 123.686 104.476C121.249 108.741 120.842 113.413 121.045 118.287C121.045 118.49 121.045 118.693 121.045 118.896C132.826 97.7731 152.934 99.8042 152.934 99.8042C147.856 96.3514 141.153 94.1172 135.466 95.3359Z" fill="#7CA661"/>
    <path d="M142.778 100.617C137.903 101.632 133.029 104.476 129.373 107.725C126.123 110.569 123.077 114.022 121.045 118.084C121.045 118.287 121.045 118.49 121.045 118.693C121.249 118.693 121.452 118.693 121.655 118.693C123.889 114.834 126.326 111.178 129.982 108.335C132.013 106.71 134.044 105.288 136.279 104.069C138.513 102.851 140.747 102.242 142.981 101.429C143.387 101.226 143.184 100.617 142.778 100.617Z" fill="#39700B"/>
    <path d="M790.861 288.078C789.845 293.155 786.189 297.218 781.721 299.858C777.456 302.295 772.784 302.702 767.91 302.498C767.706 302.498 767.503 302.498 767.3 302.498C767.3 302.295 767.3 302.092 767.3 301.889C767.707 295.39 769.941 289.296 773.597 283.812C777.049 278.735 781.721 274.673 786.393 270.61C789.845 275.688 792.08 282.391 790.861 288.078Z" fill="#AEDC90"/>
    <path d="M790.861 288.078C789.845 293.155 786.189 297.218 781.721 299.858C777.456 302.295 772.784 302.702 767.91 302.498C767.706 302.498 767.503 302.498 767.3 302.498C788.424 290.718 786.393 270.61 786.393 270.61C789.845 275.688 792.08 282.391 790.861 288.078Z" fill="#7CA661"/>
    <path d="M785.58 280.766C784.565 285.64 781.721 290.515 778.472 294.171C775.628 297.421 772.175 300.467 768.113 302.499C767.91 302.499 767.707 302.499 767.504 302.499C767.504 302.295 767.504 302.092 767.504 301.889C771.363 299.655 775.019 297.218 777.862 293.562C779.487 291.531 780.909 289.5 782.128 287.265C783.346 285.031 783.956 282.797 784.768 280.563C784.971 280.157 785.58 280.36 785.58 280.766Z" fill="#39700B"/>
    <path d="M260.113 823.522C265.605 816.485 275.732 815.284 282.769 820.776C288.948 825.582 290.664 833.992 287.231 840.686L317.096 850.984L340.782 756.069C337.521 756.069 334.088 755.039 331.17 752.808C324.476 747.487 323.275 737.875 328.424 731.01C333.058 725.003 341.469 723.458 347.991 726.891L360.52 676.601L320.872 650.855L295.985 669.049C297.529 674.026 296.843 679.691 293.41 683.981C288.089 690.847 278.134 692.22 271.097 687.071L205.36 734.958C206.733 735.473 208.106 736.159 209.308 737.017C214.8 741.308 215.83 749.375 211.539 755.039C207.248 760.532 199.181 761.561 193.517 757.271C190.256 754.696 188.54 750.92 188.54 747.144L166.914 762.935L218.748 816.829L256.68 829.873C257.538 827.813 258.568 825.582 260.113 823.522Z" fill="#EBB64A"/>
    <path d="M321.215 651.027L296.328 669.221C297.873 674.198 297.186 679.862 293.753 684.153C288.433 691.019 278.478 692.392 271.441 687.243L205.704 735.13C207.077 735.644 208.45 736.331 209.651 737.189C215.144 741.48 216.173 749.547 211.882 755.211C207.592 760.703 199.525 761.733 193.861 757.442C190.599 754.868 188.883 751.092 188.883 747.316L167.257 763.106L219.091 817L360.864 676.601L321.215 651.027Z" fill="#EEC94D"/>
    <path d="M268.008 739.249C264.403 743.883 257.881 744.57 253.247 741.137C248.613 737.533 247.926 731.01 251.359 726.376C254.963 721.742 261.486 721.055 266.12 724.488C270.754 728.092 271.612 734.786 268.008 739.249Z" fill="#EBB64A"/>
    <path d="M336.834 684.153C334.603 687.071 330.312 687.586 327.394 685.355C324.477 683.123 323.962 678.833 326.193 675.915C328.424 672.997 332.715 672.482 335.633 674.713C338.551 676.945 339.066 681.235 336.834 684.153Z" fill="#EBB64A"/>
    <path d="M239.345 786.105C235.397 791.083 228.188 791.941 223.211 788.165C218.233 784.217 217.375 777.009 221.151 772.031C225.099 767.054 232.307 766.196 237.285 769.972C242.434 773.919 243.292 781.128 239.345 786.105Z" fill="#EBB64A"/>
    <path d="M312.29 799.493C309.029 803.784 302.85 804.471 298.559 801.209C294.268 797.948 293.582 791.769 296.843 787.479C300.104 783.188 306.283 782.501 310.574 785.762C314.865 789.023 315.551 795.202 312.29 799.493Z" fill="#CC9431"/>
    <path d="M582.206 729.552C582.206 729.552 527.554 774.999 515.473 774.999C503.392 774.999 494.955 756.015 481.724 771.931C468.3 787.847 497.831 798.777 497.831 798.777C497.831 798.777 490.736 819.87 505.694 827.157C520.651 834.444 522.185 815.268 526.02 798.585C529.663 781.902 601.765 752.755 601.765 752.755L582.206 729.552Z" fill="#F2D0A4"/>
    <path d="M758.816 689.666C784.704 644.027 742.325 588.608 691.509 601.648C690.742 601.84 690.166 602.032 689.399 602.223C650.28 613.729 568.782 724.374 571.084 734.154C574.727 749.878 591.218 732.236 584.89 745.66C578.562 759.083 571.659 768.479 606.176 761.384C640.884 754.289 740.791 719.388 757.857 691.2C758.241 690.625 758.624 690.049 758.816 689.666Z" fill="#C89059"/>
    <path d="M662.169 654.19C698.604 620.248 726.792 612.578 741.558 611.427C728.135 601.456 710.493 596.854 691.509 601.648C690.742 601.839 690.166 602.031 689.399 602.223C650.28 613.729 568.782 724.374 571.084 734.154C574.727 749.878 591.218 732.236 584.89 745.659C578.562 759.082 571.659 768.479 606.176 761.383C611.353 760.233 618.065 758.507 625.735 756.398C622.667 734.729 622.475 691.199 662.169 654.19Z" fill="#BA7F4A"/>
    <path d="M681.153 664.929C679.236 666.079 676.551 665.504 675.401 663.586C674.25 661.669 674.825 658.984 676.743 657.833C678.661 656.683 681.345 657.258 682.496 659.176C683.646 661.093 683.071 663.778 681.153 664.929Z" fill="#BA7F4A"/>
    <path d="M664.087 686.981C661.786 688.324 658.91 687.748 657.376 685.447C656.033 683.146 656.608 680.27 658.91 678.736C661.211 677.393 664.087 677.969 665.621 680.27C667.155 682.571 666.388 685.447 664.087 686.981Z" fill="#BA7F4A"/>
    <path d="M651.431 712.101C649.129 713.444 646.253 712.868 644.719 710.567C643.377 708.266 643.952 705.39 646.253 703.856C648.554 702.513 651.431 703.089 652.965 705.39C654.499 707.691 653.54 710.567 651.431 712.101Z" fill="#BA7F4A"/>
    <path d="M673.291 704.047C671.566 705.198 669.264 704.623 668.306 702.897C667.155 701.171 667.73 698.87 669.456 697.911C671.182 696.761 673.483 697.336 674.442 699.062C675.593 700.787 675.017 702.897 673.291 704.047Z" fill="#BA7F4A"/>
    <path d="M704.357 653.231C702.631 654.382 700.33 653.807 699.371 652.081C698.22 650.355 698.796 648.054 700.521 647.095C702.247 645.945 704.548 646.52 705.507 648.246C706.658 649.972 706.082 652.273 704.357 653.231Z" fill="#BA7F4A"/>
    <path d="M540.265 568.135C569.617 568.135 593.411 544.341 593.411 514.99C593.411 485.639 569.617 461.845 540.265 461.845C510.914 461.845 487.12 485.639 487.12 514.99C487.12 544.341 510.914 568.135 540.265 568.135Z" fill="#EBB64A"/>
    <path d="M540.265 562.951C566.753 562.951 588.226 541.478 588.226 514.99C588.226 488.502 566.753 467.03 540.265 467.03C513.777 467.03 492.305 488.502 492.305 514.99C492.305 541.478 513.777 562.951 540.265 562.951Z" fill="white"/>
    <path d="M497.489 513.55H529.895C532.343 513.55 533.64 510.525 531.911 508.797L509.011 485.753C507.859 484.601 505.843 484.745 504.835 485.897C499.218 492.666 495.617 501.164 494.753 510.381C494.609 512.11 495.905 513.55 497.489 513.55Z" fill="#EEC94D"/>
    <path d="M530.039 516.286H497.49C495.761 516.286 494.465 517.726 494.753 519.455C495.617 528.672 499.362 537.17 504.835 543.939C505.843 545.235 507.859 545.379 509.012 544.083L531.912 521.183C533.784 519.311 532.488 516.286 530.039 516.286Z" fill="#EEC94D"/>
    <path d="M535.656 469.478C526.439 470.342 517.941 474.087 511.172 479.56C509.876 480.568 509.732 482.585 511.028 483.737L533.928 506.637C535.656 508.365 538.681 507.213 538.681 504.62V472.215C538.825 470.63 537.385 469.334 535.656 469.478Z" fill="#EEC94D"/>
    <path d="M546.458 506.781L569.358 483.881C570.51 482.729 570.366 480.712 569.214 479.704C562.445 474.087 553.947 470.486 544.73 469.622C543.002 469.478 541.561 470.774 541.561 472.359V504.764C541.561 507.213 544.586 508.509 546.458 506.781Z" fill="#EEC94D"/>
    <path d="M550.347 513.55H582.753C584.481 513.55 585.777 512.11 585.489 510.382C584.625 501.164 580.88 492.666 575.407 485.897C574.399 484.601 572.383 484.457 571.231 485.753L548.331 508.653C546.602 510.526 547.898 513.55 550.347 513.55Z" fill="#EEC94D"/>
    <path d="M582.896 516.286H550.491C548.042 516.286 546.746 519.311 548.474 521.039L571.374 543.939C572.527 545.091 574.543 544.947 575.551 543.795C581.168 537.026 584.769 528.528 585.633 519.311C585.777 517.726 584.481 516.286 582.896 516.286Z" fill="#EEC94D"/>
    <path d="M534.072 523.056L511.172 545.956C510.02 547.108 510.164 549.124 511.316 550.132C518.085 555.749 526.583 559.35 535.8 560.214C537.529 560.358 538.969 559.062 538.969 557.478V525.072C538.825 522.624 535.8 521.327 534.072 523.056Z" fill="#EEC94D"/>
    <path d="M546.458 523.056C544.73 521.327 541.705 522.48 541.705 525.072V557.478C541.705 559.206 543.146 560.502 544.874 560.214C554.091 559.35 562.589 555.605 569.358 550.132C570.654 549.124 570.798 547.108 569.502 545.956L546.458 523.056Z" fill="#EEC94D"/>
    <path d="M265.028 526.862C265.028 526.862 271.872 529.406 275.783 524.636C279.693 519.867 285.56 506.353 298.759 501.902C302.181 500.789 305.114 499.835 307.721 499.04C313.424 497.291 317.987 492.999 319.942 487.435C322.061 481.711 326.623 474.398 336.563 469.947C354.651 461.998 354.325 455.32 356.443 449.597C358.562 443.874 372.738 461.362 369.642 484.414C366.546 507.466 343.896 522.887 343.896 522.887C343.896 522.887 334.282 534.97 313.098 540.852C292.078 546.735 282.464 534.493 278.716 532.585C275.131 530.677 268.45 536.242 265.191 533.38C262.258 530.677 265.028 526.862 265.028 526.862Z" fill="#D4E86D"/>
    <path d="M369.642 484.573C372.738 461.521 358.562 443.874 356.443 449.756C355.14 453.412 354.814 457.387 350.088 461.838C352.695 466.131 355.303 472.967 354.977 483.46C354.325 504.445 334.445 501.743 328.09 508.738C321.735 515.733 322.875 532.426 301.203 534.016C288.33 534.97 280.834 528.77 276.923 523.205C276.434 523.841 276.108 524.318 275.782 524.795C271.872 529.564 265.028 527.021 265.028 527.021C265.028 527.021 262.258 530.677 265.354 533.539C268.45 536.401 275.131 530.836 278.879 532.744C282.463 534.652 292.078 546.893 313.261 541.011C334.282 535.129 344.059 523.046 344.059 523.046C344.059 523.046 366.383 507.625 369.642 484.573Z" fill="#B5CD5A"/>
    <path d="M565.5 400C559.5 400 559.5 410 565.5 410C571.5 409.787 571.5 400 565.5 400Z" fill="#FFF1CE"/>
    <path d="M453.91 732.022H453.739C452.709 732.197 451.85 733.425 452.022 734.477C452.022 735.53 452.709 736.757 453.739 736.933H453.91C455.455 737.284 457 736.231 457 734.477C457 732.724 455.455 731.847 453.91 732.022Z" fill="#FFF1CE"/>
    <path d="M397.5 368C391.5 368 391.5 377 397.5 377C403.5 377 403.5 368 397.5 368Z" fill="#FFF1CE"/>
    <path d="M249.999 585.645C249.999 585.645 257.006 587.553 260.428 582.466C263.85 577.378 268.575 563.388 281.285 557.824C284.544 556.393 287.477 555.121 289.922 554.167C295.462 551.782 299.699 547.172 301.165 541.608C302.632 535.725 306.543 528.094 315.994 522.848C333.43 513.309 332.289 506.791 333.918 500.908C335.548 495.026 351.191 511.242 350.213 534.453C349.236 557.665 328.052 574.994 328.052 574.994C328.052 574.994 319.579 587.871 299.047 595.502C278.515 603.133 267.923 591.846 264.175 590.256C260.428 588.666 254.235 594.707 250.813 592.164C247.717 589.62 249.999 585.645 249.999 585.645Z" fill="#D4E86D"/>
    <path d="M350.377 534.454C351.354 511.242 335.548 494.867 334.081 500.909C333.104 504.724 333.104 508.699 328.867 513.627C331.963 517.602 335.059 524.279 335.711 534.772C336.852 555.757 316.972 554.803 311.268 562.275C305.565 569.748 308.172 586.282 286.826 589.779C273.952 591.846 266.131 586.282 261.731 581.035C261.405 581.671 261.079 582.307 260.753 582.784C257.331 587.871 250.325 585.964 250.325 585.964C250.325 585.964 248.043 589.938 251.302 592.482C254.724 595.026 260.916 588.984 264.664 590.574C268.412 592.164 279.167 603.452 299.536 595.821C320.068 588.189 328.541 575.312 328.541 575.312C328.541 575.312 349.399 557.665 350.377 534.454Z" fill="#B5CD5A"/>
</svg>